<?xml version="1.0" encoding="UTF-8"?>
<svg id="Layer_1" data-name="Layer 1" xmlns="http://www.w3.org/2000/svg" viewBox="0 0 1858.87 417.6">
  <defs>
    <style>
      .cls-1 {
        fill: #153f33;
      }

      .cls-2 {
        fill: #8bea7d;
      }
    </style>
  </defs>
  <g>
    <path class="cls-1" d="M520.17,135.22c23.5,0,41.5,5.09,53.98,15.27,12.48,10.18,18.73,23.87,18.73,41.08,0,10.7-2.94,20.3-8.81,28.8-5.88,8.5-13.64,14.64-23.29,18.41,13.01,3.15,23.29,9.44,30.85,18.89,7.56,9.44,11.33,21.3,11.33,35.57,0,19.73-6.56,35.68-19.67,47.85-13.12,12.17-30.17,18.26-51.15,18.26h-114.26V135.22h102.3Zm-63.9,93.49h53.51c15.11,0,26.23-2.36,33.37-7.08,7.13-4.72,10.7-12.64,10.7-23.76,0-12.59-3.72-20.88-11.17-24.87-7.45-3.99-18-5.98-31.64-5.98h-54.77v61.7Zm0,98.53h58.86c15.11,0,26.97-2.52,35.57-7.55,8.6-5.04,12.91-14.17,12.91-27.39,0-7.35-1.31-13.49-3.93-18.41-2.62-4.93-6.4-8.55-11.33-10.86-4.93-2.31-10.02-3.88-15.27-4.72-5.25-.84-11.44-1.26-18.57-1.26h-58.24v70.19Z"/>
    <path class="cls-1" d="M746.16,349.9c-13.33,9.87-29.22,14.8-47.69,14.8-24.55,0-44.02-7.93-58.39-23.77-14.37-15.84-21.56-36.15-21.56-60.91s7.4-46.38,22.19-62.96c14.79-16.58,33.63-24.87,56.5-24.87s42.49,8.13,56.35,24.39c13.85,16.26,20.78,38.46,20.78,66.58v3.78h-119.93c.42,16.37,4.51,29.02,12.28,37.93,7.76,8.92,18.57,13.38,32.42,13.38,9.86,0,17.89-2.36,24.08-7.08,6.19-4.72,11.07-12.22,14.64-22.5h34.31c-3.99,17.63-12.64,31.37-25.97,41.23Zm-20.46-119.14c-7.45-7.87-17.05-11.8-28.8-11.8s-21.25,3.78-28.49,11.33c-7.24,7.56-11.7,18.47-13.38,32.74h83.42c-1.05-13.64-5.3-24.39-12.75-32.26Z"/>
    <path class="cls-1" d="M914.6,349.9c-13.33,9.87-29.22,14.8-47.69,14.8-24.55,0-44.02-7.93-58.39-23.77-14.37-15.84-21.56-36.15-21.56-60.91s7.4-46.38,22.19-62.96c14.79-16.58,33.63-24.87,56.5-24.87s42.5,8.13,56.35,24.39c13.85,16.26,20.78,38.46,20.78,66.58v3.78h-119.93c.42,16.37,4.51,29.02,12.28,37.93,7.76,8.92,18.57,13.38,32.42,13.38,9.86,0,17.89-2.36,24.08-7.08,6.19-4.72,11.07-12.22,14.64-22.5h34.31c-3.99,17.63-12.64,31.37-25.97,41.23Zm-20.46-119.14c-7.45-7.87-17.05-11.8-28.8-11.8s-21.25,3.78-28.49,11.33c-7.24,7.56-11.7,18.47-13.38,32.74h83.42c-1.05-13.64-5.3-24.39-12.75-32.26Z"/>
    <path class="cls-1" d="M1093.88,359.34h-35.57V135.22h35.57v224.12Z"/>
    <path class="cls-1" d="M1243.34,349.9c-13.33,9.87-29.22,14.8-47.69,14.8-24.55,0-44.02-7.93-58.39-23.77-14.37-15.84-21.56-36.15-21.56-60.91s7.4-46.38,22.19-62.96c14.79-16.58,33.63-24.87,56.5-24.87s42.5,8.13,56.35,24.39c13.85,16.26,20.78,38.46,20.78,66.58v3.78h-119.93c.42,16.37,4.51,29.02,12.28,37.93,7.76,8.92,18.57,13.38,32.42,13.38,9.86,0,17.89-2.36,24.08-7.08,6.19-4.72,11.07-12.22,14.64-22.5h34.31c-3.99,17.63-12.64,31.37-25.97,41.23Zm-20.46-119.14c-7.45-7.87-17.05-11.8-28.8-11.8s-21.25,3.78-28.49,11.33c-7.24,7.56-11.7,18.47-13.38,32.74h83.42c-1.05-13.64-5.3-24.39-12.75-32.26Z"/>
    <path class="cls-1" d="M971.86,320.24v-97.23h-27.06v-26.12h27.06v-48.77h35.87v48.77h32.72v26.12h-32.72v85.58c0,5.04,.1,8.55,.31,10.54,.21,1.99,.84,4.2,1.89,6.61,1.05,2.41,2.89,4.04,5.51,4.88,2.62,.84,6.24,1.26,10.86,1.26,5.87,0,10.59-.21,14.16-.63v28.32c-7.13,.84-17.36,1.26-24.23,1.26-47,0-44.37-31.16-44.37-40.59Z"/>
  </g>
  <g>
    <path class="cls-2" d="M1400.57,193.61c7.36,0,13.2,1.67,17.53,5.02,4.32,3.34,6.48,8.59,6.48,15.75,0,14.52-8.21,21.78-24.62,21.78h-19.55v29.58h-9.52v-72.13h29.69Zm-20.16,34.55h18.34c5.13,0,9.14-.96,12.01-2.89,2.87-1.92,4.31-5.35,4.31-10.28,0-2.77-.46-5.07-1.37-6.89-.91-1.82-2.25-3.18-4-4.05-1.76-.88-3.58-1.47-5.47-1.77-1.89-.31-4.16-.46-6.79-.46h-17.02v26.34Z"/>
    <path class="cls-2" d="M1483.3,201.92h-40.42v22.59h37.79v8.01h-37.79v24.92h40.93v8.31h-50.45v-72.13h49.95v8.31Z"/>
    <path class="cls-2" d="M1534.67,214.79c-1.01-9.8-6.99-14.69-17.93-14.69-5.2,0-9.22,1.05-12.06,3.14-2.84,2.09-4.26,5.03-4.26,8.81,0,1.35,.2,2.53,.61,3.55,.41,1.01,1.1,1.91,2.08,2.68,.98,.78,1.91,1.44,2.79,1.98,.88,.54,2.26,1.08,4.15,1.62,1.89,.54,3.41,.93,4.56,1.17,1.15,.24,2.94,.62,5.37,1.17,2.97,.61,5.44,1.17,7.4,1.67,1.96,.51,4.29,1.33,6.99,2.48,2.7,1.15,4.85,2.42,6.43,3.8,1.59,1.39,2.97,3.23,4.15,5.52,1.18,2.3,1.77,4.9,1.77,7.8,0,5.07-1.42,9.3-4.26,12.71-2.84,3.41-6.28,5.79-10.33,7.14-4.05,1.35-8.54,2.03-13.47,2.03-9.05,0-16.29-2.15-21.73-6.43-5.44-4.29-8.16-10.62-8.16-19h9.22c.2,6.15,2.26,10.62,6.18,13.42,3.92,2.8,9.02,4.2,15.3,4.2,4.93,0,9.15-1.03,12.66-3.09,3.51-2.06,5.27-5.42,5.27-10.08,0-2.16-.47-4-1.42-5.52-.94-1.52-2.43-2.77-4.46-3.75-2.03-.98-4.05-1.77-6.08-2.38-2.03-.61-4.69-1.28-8-2.03-.47-.07-.81-.14-1.01-.2-7.43-1.69-12.29-3.04-14.59-4.05-7.03-3.04-10.54-8.27-10.54-15.71,0-6.89,2.55-12.04,7.65-15.45,5.1-3.41,11.26-5.12,18.49-5.12,7.9,0,14.22,1.89,18.95,5.67,4.73,3.78,7.23,9.42,7.5,16.92h-9.22Z"/>
    <path class="cls-2" d="M1606.75,201.92h-24.21v63.83h-9.52v-63.83h-24.21v-8.31h57.95v8.31Z"/>
    <path class="cls-2" d="M1422.1,351.69c-5.5,5.1-12.75,7.65-21.73,7.65-10.27,0-18.41-3.39-24.42-10.18-6.01-6.79-9.02-15.96-9.02-27.51,0-10.81,3.02-19.81,9.07-27,6.05-7.19,14.4-10.79,25.08-10.79,7.63,0,14.35,2.06,20.16,6.18,5.81,4.12,9.05,9.83,9.72,17.12h-9.52c-1.08-4.73-3.44-8.43-7.09-11.09-3.65-2.67-8.14-4-13.47-4-8.04,0-14.1,2.84-18.19,8.51-4.09,5.67-6.13,12.66-6.13,20.97,0,9.19,2.16,16.41,6.48,21.68,4.32,5.27,10.23,7.9,17.73,7.9,6.15,0,11.04-1.77,14.69-5.32,3.65-3.55,5.84-8.7,6.58-15.45h9.52c-.81,9.12-3.97,16.23-9.47,21.32Z"/>
    <path class="cls-2" d="M1498.36,294.05c6.08,6.86,9.12,15.82,9.12,26.9s-3.01,20.33-9.02,27.56c-6.01,7.23-14.52,10.84-25.53,10.84-5.6,0-10.64-1.01-15.1-3.04-4.46-2.03-8.09-4.83-10.89-8.41-2.8-3.58-4.93-7.66-6.38-12.26-1.45-4.59-2.18-9.56-2.18-14.89,0-11.28,3.13-20.26,9.37-26.95,6.25-6.69,14.61-10.03,25.08-10.03s19.45,3.43,25.53,10.28Zm-44.02,6.48c-4.29,5.64-6.43,12.61-6.43,20.92,0,9.05,2.28,16.26,6.84,21.63,4.56,5.37,10.65,8.06,18.29,8.06s13.61-2.7,18.13-8.11c4.53-5.4,6.79-12.6,6.79-21.58s-2.28-16.04-6.84-21.38c-4.56-5.34-10.65-8-18.29-8-8.04,0-14.2,2.82-18.49,8.46Z"/>
    <path class="cls-2" d="M1528.59,285.49l38.09,58.56v-58.56h9.22v72.13h-10.74l-37.89-57.85v57.85h-9.12v-72.13h10.43Z"/>
    <path class="cls-2" d="M1640.88,293.79h-24.21v63.83h-9.52v-63.83h-24.21v-8.31h57.95v8.31Z"/>
    <path class="cls-2" d="M1679.71,285.49c16.14,0,24.21,6.65,24.21,19.96,0,4.19-1.13,7.89-3.39,11.09-2.26,3.21-5.25,5.35-8.97,6.43,2.43,.54,4.39,1.32,5.88,2.33,1.49,1.02,2.57,2.43,3.24,4.26,.67,1.82,1.11,3.44,1.32,4.86,.2,1.42,.37,3.51,.51,6.28,0,.27,.04,.93,.1,1.98,.07,1.05,.1,1.75,.1,2.13s.05,1.03,.15,1.98c.1,.94,.19,1.65,.25,2.13,.07,.47,.17,1.11,.3,1.92,.14,.81,.3,1.47,.51,1.98,.2,.51,.44,1.08,.71,1.72,.27,.64,.57,1.22,.91,1.72,.34,.51,.71,.96,1.12,1.37h-10.94c-.47-.68-.86-1.52-1.17-2.53-.3-1.01-.52-2.21-.66-3.6-.13-1.38-.24-2.5-.3-3.34-.07-.84-.14-2.08-.2-3.7-.07-1.62-.1-2.53-.1-2.73-.34-6.15-1.6-10.23-3.8-12.26-2.2-2.03-6.53-3.04-13.02-3.04h-18.95v31.2h-9.52v-72.13h31.71Zm-22.19,33.33h17.93c2.23,0,4.1-.07,5.62-.2,1.52-.14,3.19-.44,5.02-.91,1.82-.47,3.29-1.15,4.41-2.03,1.12-.88,2.04-2.13,2.79-3.75,.74-1.62,1.12-3.58,1.12-5.88,0-4.86-1.47-8.16-4.41-9.88s-6.94-2.58-12.01-2.58h-20.46v25.23Z"/>
    <path class="cls-2" d="M1771.89,294.05c6.08,6.86,9.12,15.82,9.12,26.9s-3.01,20.33-9.02,27.56c-6.01,7.23-14.52,10.84-25.53,10.84-5.6,0-10.64-1.01-15.1-3.04-4.46-2.03-8.09-4.83-10.89-8.41-2.8-3.58-4.93-7.66-6.38-12.26-1.45-4.59-2.18-9.56-2.18-14.89,0-11.28,3.13-20.26,9.37-26.95,6.25-6.69,14.61-10.03,25.08-10.03s19.45,3.43,25.53,10.28Zm-44.02,6.48c-4.29,5.64-6.43,12.61-6.43,20.92,0,9.05,2.28,16.26,6.84,21.63,4.56,5.37,10.65,8.06,18.29,8.06s13.61-2.7,18.13-8.11c4.53-5.4,6.79-12.6,6.79-21.58s-2.28-16.04-6.84-21.38c-4.56-5.34-10.65-8-18.29-8-8.04,0-14.2,2.82-18.49,8.46Z"/>
    <path class="cls-2" d="M1839.75,357.62h-47.82v-72.13h9.52v63.83h38.3v8.31Z"/>
  </g>
  <path class="cls-2" d="M191.97,395.23V135.06c-16.2-3.57-33.34-3.55-49.52,0V395.2l-21.69-7.16c-60.79-20.06-101.64-76.57-101.64-140.62,0-59.01,34.76-111.72,87.83-135.3-8.57-33.08-38.35-56.73-73.63-56.73V22.38c50.04,0,92.35,33.18,105.17,79.77,18.83-3.71,38.59-3.72,57.43,0,12.81-46.57,55.13-79.77,105.17-79.77V55.4c-35.29,0-65.08,23.66-73.64,56.72,53.07,23.56,87.84,76.27,87.84,135.3,0,64.06-40.84,120.58-101.64,140.64l-21.69,7.16Zm33.03-247.33v199.09c35-20.26,57.27-57.85,57.27-99.55s-22.28-79.27-57.27-99.54Zm-115.58,0c-34.99,20.28-57.27,57.88-57.27,99.53s22.27,79.27,57.27,99.53V147.9Z"/>
</svg>